<?xml version="1.0" encoding="UTF-8" standalone="no"?>
<!-- Created with Inkscape (http://www.inkscape.org/) -->

<svg
   version="1.1"
   id="svg1"
   width="62.415771"
   height="60.889221"
   viewBox="0 0 62.415771 60.889221"
   xmlns="http://www.w3.org/2000/svg"
   xmlns:svg="http://www.w3.org/2000/svg">
  <defs
     id="defs1" />
  <path
     id="path19"
     style="fill:#000000"
     d="M 30.920287,1.9048744e-4 C 26.032283,-0.01661341 21.101483,1.0781789 16.555052,3.3537062 8.6168911,7.3268244 2.2759841,15.259428 0.49255207,23.447456 c -0.730331,3.353075 -0.633086,10.200029 0.189453,13.384765 0.80650303,3.122644 2.55879203,7.460649 3.93359403,9.734375 1.388473,2.296336 4.900044,6.075833 7.3710939,7.933594 3.560382,2.676734 10.317531,5.590251 14.474609,6.240234 2.203701,0.344562 8.72326,0.05825 11.960938,-0.52539 4.439432,-0.800277 7.313943,-2.059442 12.134765,-5.3125 3.000211,-2.024521 5.170918,-4.196762 6.945308,-6.951172 3.60857,-5.601606 5.2402,-11.996251 4.85938,-19.044922 C 61.944933,21.192726 59.061233,15.062585 53.019896,9.0470654 47.093811,3.1462941 39.06696,0.02819709 30.920287,1.9048744e-4 Z M 30.621459,3.9591749 c 5.005483,-0.020161 8.060524,0.678708 12.480468,2.8574215 3.65713,1.802702 5.951579,3.6176616 8.78711,6.9453126 4.096716,4.80773 6.073036,9.782669 6.259766,15.765625 0.26283,8.421721 -2.21225,15.184503 -7.398438,20.220703 -3.484958,3.384169 -9.662686,6.170133 -15.146484,6.830078 C 29.810738,57.275487 24.360836,56.380394 19.137084,53.873237 15.187375,51.977561 12.645182,49.998082 10.127318,46.861518 6.2436871,42.023587 4.5354821,37.173129 4.3050521,30.326362 4.1807511,26.632991 4.2591841,25.618784 4.8480211,23.324409 6.6908751,16.14383 12.469018,9.1886284 18.781615,6.5529244 23.566508,4.5550848 26.206687,3.9769549 30.621459,3.9591749 Z" />
  <path
     id="path24"
     style="fill:#0a8b65;fill-opacity:1"
     d="m 31.826537,9.1623004 c -1.722988,-0.03882 -4.232268,0.9014186 -5.445313,2.0410146 -2.056664,1.932135 -3.080731,5.433894 -2.363281,8.087891 0.658325,2.43528 2.033488,4.14141 4.220703,5.234375 2.889104,1.443701 4.461059,1.380921 6.941406,-0.275391 2.843098,-1.898548 4.242188,-4.337093 4.242188,-7.396484 0,-0.845455 -0.172543,-1.939359 -0.382813,-2.431641 -1.219328,-2.854674 -4.432411,-5.1971256 -7.21289,-5.2597646 z m -0.06445,3.7578116 c 1.049272,0.0088 1.901044,0.544862 2.779297,1.695312 1.295612,1.697163 1.341685,2.958662 0.173828,4.759766 -1.376599,2.123031 -3.148881,2.347961 -5.267578,0.669922 -1.282036,-1.015391 -2.039818,-2.740018 -1.736329,-3.949219 0.303179,-1.20796 1.737004,-2.682942 2.927735,-3.011719 0.401847,-0.110955 0.773289,-0.16698 1.123047,-0.164062 z" />
  <path
     id="path21"
     style="fill:#0a8b65;fill-opacity:1"
     d="m 13.404662,24.394721 c -0.250016,-0.0027 -0.439591,8.52e-4 -0.548828,0.01172 -0.436949,0.04347 -1.114099,0.09668 -1.503907,0.119141 -1.025841,0.05911 -1.4839889,1.193023 -1.4433589,3.5625 0.03886,2.266438 1.1278669,5.892 2.4433589,8.136719 1.10411,1.884022 3.760689,4.259767 5.748047,5.138671 2.636143,1.165827 7.012195,1.942235 8.453125,1.5 0.646942,-0.198547 1.294664,-0.238539 1.445313,-0.08789 0.475163,0.475162 0.840392,2.638839 1.058593,6.271484 0.11629,1.935998 0.323405,3.663844 0.460938,3.839844 0.137532,0.176 0.913052,0.362812 1.722656,0.414062 1.942201,0.122949 2.057067,-0.227729 1.851563,-5.613281 l -0.16211,-4.240234 h 2.539063 c 8.014708,0 14.425278,-5.03051 16.314453,-12.800782 0.467628,-1.923373 0.564528,-4.42703 0.193359,-5.005859 -0.538081,-0.839126 -6.617264,-0.479444 -9.80664,0.580078 -4.218565,1.401423 -7.841936,4.083402 -9.21875,6.824219 -0.713598,1.420554 -1.487624,2.402344 -1.894532,2.402344 -0.146345,0 -0.765303,-1.051124 -1.375,-2.335938 -1.229843,-2.591648 -2.193522,-3.730974 -4.716796,-5.574218 -2.638051,-1.927088 -4.778714,-2.697004 -8.261719,-2.970704 -1.259518,-0.09898 -2.54878,-0.163665 -3.298828,-0.171876 z m 0.388672,3.69336 h 1.876953 c 3.073989,0 4.599709,0.716633 7.24414,3.404297 1.649178,1.676138 2.674619,3.071823 3.5,4.763672 0.642142,1.316249 1.166016,2.537395 1.166016,2.71289 0,0.44462 -2.636668,0.341527 -5.119141,-0.199219 -4.586306,-0.999013 -7.508171,-4.277567 -8.451171,-9.482421 z m 33.59375,0.638672 c 0.612318,0 0.379619,2.012747 -0.435547,3.763671 -2.273754,4.883881 -5.143587,7.024582 -10.115235,7.546876 -0.981325,0.103091 -2.010237,0.274613 -2.287109,0.380859 -0.804668,0.30878 -0.888572,-0.259249 -0.25,-1.685547 1.308534,-2.922702 5.227716,-7.130642 7.955078,-8.541016 0.858965,-0.444188 4.434905,-1.464843 5.132813,-1.464843 z" />
</svg>
